<svg width="498" height="381" viewBox="0 0 498 381" fill="none" xmlns="http://www.w3.org/2000/svg">
<g clip-path="url(#clip0_3_2)">
<path d="M0.345669 0.49548C-1.2955 2.22454 3.24928 7.98809 6.78412 8.70853C10.8239 9.71715 32.1592 32.6272 32.1592 36.0854C32.1592 37.2381 33.0429 38.9671 34.0529 39.9757C35.0628 40.9844 35.9465 43.578 35.9465 45.8834C35.9465 48.0447 36.4515 50.206 37.0827 50.6383C38.5976 51.791 47.3085 72.2516 47.3085 74.8452C47.3085 76.142 48.1922 77.871 49.2021 78.8797C50.2121 79.8883 51.0958 82.4819 51.0958 84.7873C51.0958 86.9486 51.6008 89.1099 52.232 89.6863C52.9895 90.1186 54.8831 94.153 56.7768 98.7639C58.5442 103.231 60.5641 108.13 61.1953 109.426C61.9528 110.867 62.4578 113.605 62.4578 115.478C62.4578 117.495 62.9628 119.369 63.594 119.945C64.3514 120.377 66.2451 124.412 68.1388 129.022C69.9062 133.489 71.9261 138.388 72.5573 139.685C73.3148 141.126 73.8198 143.864 73.8198 145.737C73.8198 147.754 74.3247 149.627 74.9559 150.059C76.9759 151.5 81.3944 163.171 81.3944 167.206C81.3944 169.223 81.8994 171.24 82.5306 171.673C84.5505 173.114 92.7564 193.718 92.7564 197.465C92.7564 199.482 93.2613 201.499 93.8926 201.931C95.9125 203.372 100.331 215.043 100.331 219.078C100.331 221.095 100.836 223.112 101.467 223.545C103.487 224.985 107.906 236.657 107.906 240.691C107.906 242.708 108.411 244.726 109.042 245.158C111.062 246.599 115.48 258.27 115.48 262.16C115.48 264.178 116.238 266.627 117.248 267.492C118.258 268.5 119.394 270.806 119.773 272.679C120.278 274.696 121.161 276.281 121.793 276.281C122.55 276.281 123.055 278.442 123.055 281.036C123.055 283.63 123.939 287.088 124.949 288.673C125.959 290.113 126.842 293.428 126.842 296.021C126.842 298.471 127.347 300.92 127.978 301.352C129.998 302.793 134.417 314.464 134.417 318.355C134.417 320.372 135.301 322.822 136.311 323.83C137.321 324.839 138.204 327.577 138.204 330.026C138.204 332.476 139.088 335.501 140.224 336.942C141.36 338.383 142.37 341.409 142.497 343.714C142.623 346.02 143.254 348.758 143.885 349.91C146.663 354.377 149.819 362.59 149.188 363.743C148.809 364.463 149.314 366.913 150.324 369.074C151.207 371.379 152.091 374.693 152.091 376.423C152.091 382.33 158.908 382.618 160.297 376.711C161.181 373.253 167.998 356.106 169.892 352.648C170.523 351.495 171.406 349.478 171.785 348.325C172.164 347.173 173.048 345.155 173.679 344.003C174.31 342.85 175.573 339.68 176.582 337.086C177.592 334.493 179.36 332.043 180.496 331.611C181.506 331.179 182.39 329.594 182.39 328.153C182.39 326.856 183.526 323.974 184.915 321.957C186.303 319.94 187.439 317.346 187.439 316.194C187.439 315.041 188.323 313.312 189.333 312.303C190.343 311.295 191.227 309.421 191.227 307.98C191.227 306.54 192.111 304.666 193.12 303.658C194.13 302.649 195.014 300.632 195.014 299.191C195.014 297.75 196.403 295.445 198.17 294.148C200.19 292.563 201.2 290.834 200.695 289.393C200.316 287.808 201.326 285.503 203.22 283.485C204.987 281.612 206.376 279.307 206.376 278.298C206.376 277.434 207.26 275.849 208.27 274.84C210.668 272.535 210.668 268.212 208.27 267.059C207.26 266.627 206.376 265.042 206.376 263.601C206.376 262.016 205.492 259.999 204.482 258.99C203.472 257.982 202.589 255.1 202.589 252.362C202.589 249.769 202.084 247.319 201.453 246.887C199.433 245.446 195.014 233.775 195.014 229.74C195.014 227.723 194.509 225.706 193.878 225.274C191.858 223.833 187.439 212.162 187.439 208.127C187.439 206.11 186.934 204.093 186.303 203.66C184.283 202.219 179.865 190.548 179.865 186.514C179.865 184.497 179.36 182.479 178.729 182.047C176.709 180.606 172.29 168.935 172.29 164.901C172.29 162.883 171.785 160.866 171.154 160.434C169.134 158.993 164.716 147.322 164.716 143.287C164.716 141.27 164.211 139.253 163.579 138.821C161.559 137.38 157.141 125.708 157.141 121.674C157.141 119.657 156.636 117.639 156.005 117.207C153.985 115.766 149.566 104.095 149.566 100.061C149.566 98.0434 149.061 96.0262 148.43 95.4498C146.915 94.4412 141.613 81.4733 139.467 73.8366C138.583 70.6666 136.816 65.9117 135.427 63.4622C134.038 60.8686 133.281 57.5546 133.786 56.1137C134.164 54.5287 133.659 52.6555 132.523 51.5028C131.513 50.4942 130.63 48.0447 130.63 45.8834C130.63 43.8661 129.746 40.2639 128.736 37.9585C124.696 29.1691 126.969 13.8957 133.281 6.69129C134.543 5.2504 135.679 2.94499 135.679 1.64819C135.679 -0.224963 134.417 -0.369051 126.59 0.639569C114.849 2.08045 30.518 2.08045 13.7275 0.639569C6.78412 0.0632145 0.724401 -0.0808741 0.345669 0.49548ZM109.673 21.1001C110.809 22.541 112.577 27.8723 113.713 32.9154C118.131 54.8169 121.919 67.3526 132.776 96.8907C136.563 107.121 141.234 120.089 143.254 125.708C145.148 131.184 149.692 144.152 153.354 154.526C157.015 164.756 161.307 177.148 162.822 181.903C164.463 186.658 171.154 206.11 177.971 225.13C185.293 245.878 190.469 262.593 190.848 266.915C191.606 274.696 189.838 279.595 177.34 304.378C174.436 309.854 171.028 317.346 169.513 320.948C166.357 328.585 160.928 336.798 158.908 336.798C155.247 336.798 150.955 325.847 132.397 267.636C129.998 260.143 127.221 251.93 126.211 249.625C125.327 247.175 119.52 231.037 113.46 213.602C107.527 196.168 99.826 174.699 96.5437 166.053C93.1351 157.264 87.5804 142.135 83.9193 132.192C73.946 104.383 64.6039 79.7442 63.594 78.1592C63.2152 77.2947 61.1953 72.1075 59.3017 66.6321C57.2818 61.0127 52.9895 50.0619 49.5809 42.2812C43.1424 27.1519 42.0062 20.5238 45.7936 19.3711C46.9298 18.9388 61.3216 18.6506 77.7333 18.5066C105.255 18.3625 107.653 18.5066 109.673 21.1001Z" fill="#F9F9F9"/>
<path d="M166.862 0.495511C165.725 1.79231 170.901 8.27629 172.921 8.27629C175.194 8.27629 183.4 15.4807 191.101 24.2701C197.413 31.6186 206.376 48.0447 206.376 52.5115C206.376 53.376 207.134 55.9696 208.143 58.275C218.117 81.3292 221.525 90.2627 221.525 93.5767C221.525 95.7381 222.03 97.7553 222.662 98.1876C224.681 99.6284 232.887 120.233 232.887 123.979C232.887 125.997 233.392 128.014 234.024 128.446C236.043 129.887 244.249 150.492 244.249 154.238C244.249 156.255 244.754 158.272 245.386 158.849C246.9 159.857 252.203 172.681 254.349 180.462C255.233 183.632 257.631 189.684 259.525 194.006C261.545 198.329 263.186 203.516 263.186 205.822C263.186 207.983 263.691 210.144 264.322 210.577C266.342 212.018 270.761 223.689 270.761 227.723C270.761 229.74 271.266 231.758 271.897 232.19C273.917 233.631 278.335 245.302 278.335 249.336C278.335 251.354 278.84 253.371 279.471 253.803C281.365 255.244 285.91 266.915 285.91 270.517C285.91 272.391 286.667 274.984 287.677 276.137C288.561 277.434 290.581 282.765 292.096 288.096C293.737 293.428 295.504 298.182 296.136 298.615C296.767 299.191 297.272 301.497 297.272 303.946C297.272 306.396 298.156 309.565 299.292 311.006C300.428 312.447 301.438 315.473 301.564 317.634C301.69 319.796 302.322 322.678 302.953 323.83C306.361 329.882 308.634 336.366 308.634 339.824C308.634 341.985 309.518 344.435 310.527 345.444C311.537 346.452 312.421 349.334 312.421 351.928C312.421 354.521 313.305 357.403 314.315 358.412C315.325 359.42 316.208 362.302 316.208 365.04C316.208 367.633 316.713 370.083 317.345 370.659C317.976 371.091 318.86 373.397 319.365 375.846C320.122 379.448 320.753 380.169 323.531 379.737C325.803 379.448 327.065 378.296 327.318 376.423C327.697 373.685 330.6 365.616 332.873 361.293C333.378 360.141 334.766 356.971 335.903 354.377C336.913 351.783 338.554 349.334 339.564 348.758C340.574 348.325 341.457 346.884 341.457 345.444C341.457 344.147 342.593 341.265 343.982 339.248C345.371 337.23 346.507 334.637 346.507 333.484C346.507 332.331 347.391 330.602 348.401 329.594C349.411 328.585 350.294 326.712 350.294 325.271C350.294 323.83 351.178 321.957 352.188 320.948C353.198 319.94 354.082 317.923 354.082 316.482C354.082 315.041 355.47 312.735 357.238 311.439C359.258 309.854 360.268 308.125 359.763 306.684C359.384 305.099 360.394 302.793 362.288 300.776C364.055 298.903 365.444 296.309 365.444 294.868C365.444 293.572 366.327 291.699 367.337 290.69C368.347 289.681 369.231 287.808 369.231 286.367C369.231 284.926 370.115 283.053 371.125 282.045C372.135 281.036 373.018 279.451 373.018 278.442C373.018 277.434 373.902 275.849 374.912 274.84C377.311 272.535 377.311 268.212 374.912 267.059C373.776 266.627 373.018 264.466 373.018 261.296C373.018 258.558 372.513 255.965 371.882 255.532C369.862 254.091 365.444 242.42 365.444 238.386C365.444 236.369 364.939 234.351 364.307 233.919C362.288 232.478 357.869 220.807 357.869 216.772C357.869 214.755 357.364 212.738 356.733 212.306C354.713 210.865 350.294 199.194 350.294 195.159C350.294 193.142 349.789 191.125 349.158 190.692C347.138 189.252 342.72 177.58 342.72 173.546C342.72 171.529 342.215 169.511 341.584 169.079C339.564 167.638 335.145 155.967 335.145 151.933C335.145 149.915 334.64 147.898 334.009 147.466C331.989 146.025 327.57 134.354 327.57 130.319C327.57 128.302 327.065 126.285 326.434 125.853C324.414 124.412 319.996 112.741 319.996 108.706C319.996 106.689 319.491 104.672 318.86 104.239C316.84 102.798 312.421 91.1272 312.421 87.0927C312.421 85.0755 311.916 83.0583 311.285 82.626C309.265 81.1851 304.846 69.5139 304.846 65.6235C304.846 63.6063 303.963 61.1568 302.953 60.1482C301.943 59.1396 301.059 57.5546 301.059 56.546C301.059 55.5373 300.302 53.9524 299.292 53.0878C298.408 52.2233 297.146 47.4684 296.767 42.4253C296.262 37.5263 295.252 32.6273 294.494 31.7627C291.591 27.7282 295.252 12.1667 300.68 5.6827C301.564 4.67408 302.322 2.80093 302.322 1.64822C302.322 -0.0808436 300.807 -0.224932 293.863 0.639599C282.628 2.08048 198.17 2.08048 181.127 0.639599C173.805 0.0632449 167.367 -0.0808436 166.862 0.495511ZM276.315 20.5238C277.83 21.8206 279.724 27.5842 281.618 36.6617C283.259 44.4425 286.162 54.961 287.93 60.1482C289.697 65.3354 291.97 71.8194 292.853 74.557C297.524 88.8218 317.092 144.872 321.889 158.128C324.919 166.486 329.464 179.454 331.989 186.946C334.514 194.439 337.67 203.228 338.932 206.398C340.195 209.568 345.118 223.545 349.789 237.377C360.141 267.348 360.52 272.102 354.082 285.647C351.809 290.402 349.537 294.868 349.032 295.733C348.527 296.453 345.118 303.658 341.331 311.583C331.736 332.62 329.212 336.798 326.308 336.798C322.647 336.798 318.733 327 306.614 287.808C303.963 279.019 275.558 198.041 264.701 168.215C257.505 148.33 235.412 88.9659 234.15 86.2282C232.761 82.9142 224.429 61.1568 220.263 49.9179C218.369 44.7307 215.339 36.9499 213.446 32.4832C209.785 23.6938 209.406 20.3797 211.805 19.3711C212.562 18.9388 226.954 18.5066 243.618 18.5066C267.983 18.5066 274.422 18.7948 276.315 20.5238Z" fill="#F9F9F9"/>
<path d="M399.908 1.50412C400.161 2.36865 401.55 3.08909 403.064 2.80092C404.706 2.51274 406.221 3.52136 407.104 5.25042C407.862 6.97948 409.503 8.27628 410.765 8.27628C416.194 8.27628 433.616 29.8896 433.616 36.6617C433.616 37.9585 434.752 41.1285 436.267 43.7221C437.782 46.4598 438.539 49.7738 438.034 51.2147C437.655 52.7996 438.16 54.8169 439.297 55.8255C440.938 57.4105 441.19 60.7245 441.064 72.6839C440.938 80.8969 441.19 88.1013 441.695 88.5336C442.831 89.8304 448.765 84.7873 448.765 82.3378C448.765 81.041 449.649 78.1592 450.658 75.8538C451.668 73.5484 453.436 69.8021 454.446 67.4967C455.456 65.1913 456.339 62.3095 456.339 61.1568C456.339 60.0041 457.223 58.275 458.233 57.2664C459.243 56.2578 460.127 54.3846 460.127 53.0878C460.127 51.6469 461.894 48.7652 463.914 46.4598C466.06 44.1543 467.701 41.2726 467.701 39.9758C467.701 38.679 469.469 35.7972 471.489 33.4918C473.635 31.1864 475.276 28.1605 475.276 26.8637C475.276 24.7024 489.668 9.2849 495.728 4.96224C496.99 3.95362 498 2.36865 498 1.36003C498 -0.224944 495.601 -0.369032 485.754 0.639587C470.353 2.08047 435.509 2.08047 414.931 0.783676C402.812 -0.0808553 399.403 0.0632332 399.908 1.50412ZM457.981 21.1002C459.496 22.8292 457.097 30.1777 453.815 33.4918C451.542 35.7972 451.29 35.7972 448.26 32.0509C444.725 27.7282 443.841 20.6679 446.619 19.227C448.765 18.0743 456.466 19.3711 457.981 21.1002Z" fill="#F9F9F9"/>
</g>
<defs>
<clipPath id="clip0_3_2">
<rect width="498" height="381" fill="white"/>
</clipPath>
</defs>
</svg>
