<?xml version="1.0" standalone="no"?>
<!DOCTYPE svg PUBLIC "-//W3C//DTD SVG 20010904//EN"
 "http://www.w3.org/TR/2001/REC-SVG-20010904/DTD/svg10.dtd">
<svg version="1.0" xmlns="http://www.w3.org/2000/svg"
 width="696.000000pt" height="408.000000pt" viewBox="0 0 696.000000 408.000000"
 preserveAspectRatio="xMidYMid meet">
<metadata>
Created by potrace 1.10, written by Peter Selinger 2001-2011
</metadata>
<g transform="translate(0.000000,408.000000) scale(0.100000,-0.100000)"
fill="#f9f9f9" stroke="none">
<path d="M1388 3134 c-13 -12 23 -52 51 -57 32 -7 201 -166 201 -190 0 -8 7
-20 15 -27 8 -7 15 -25 15 -41 0 -15 4 -30 9 -33 12 -8 81 -150 81 -168 0 -9
7 -21 15 -28 8 -7 15 -25 15 -41 0 -15 4 -30 9 -34 6 -3 21 -31 36 -63 14 -31
30 -65 35 -74 6 -10 10 -29 10 -42 0 -14 4 -27 9 -31 6 -3 21 -31 36 -63 14
-31 30 -65 35 -74 6 -10 10 -29 10 -42 0 -14 4 -27 9 -30 16 -10 51 -91 51
-119 0 -14 4 -28 9 -31 16 -10 81 -153 81 -179 0 -14 4 -28 9 -31 16 -10 51
-91 51 -119 0 -14 4 -28 9 -31 16 -10 51 -91 51 -119 0 -14 4 -28 9 -31 16
-10 51 -91 51 -118 0 -14 6 -31 14 -37 8 -7 17 -23 20 -36 4 -14 11 -25 16
-25 6 0 10 -15 10 -33 0 -18 7 -42 15 -53 8 -10 15 -33 15 -51 0 -17 4 -34 9
-37 16 -10 51 -91 51 -118 0 -14 7 -31 15 -38 8 -7 15 -26 15 -43 0 -17 7 -38
16 -48 9 -10 17 -31 18 -47 1 -16 6 -35 11 -43 22 -31 47 -88 42 -96 -3 -5 1
-22 9 -37 7 -16 14 -39 14 -51 0 -41 54 -43 65 -2 7 24 61 143 76 167 5 8 12
22 15 30 3 8 10 22 15 30 5 8 15 30 23 48 8 18 22 35 31 38 8 3 15 14 15 24 0
9 9 29 20 43 11 14 20 32 20 40 0 8 7 20 15 27 8 7 15 20 15 30 0 10 7 23 15
30 8 7 15 21 15 31 0 10 11 26 25 35 16 11 24 23 20 33 -3 11 5 27 20 41 14
13 25 29 25 36 0 6 7 17 15 24 19 16 19 46 0 54 -8 3 -15 14 -15 24 0 11 -7
25 -15 32 -8 7 -15 27 -15 46 0 18 -4 35 -9 38 -16 10 -51 91 -51 119 0 14 -4
28 -9 31 -16 10 -51 91 -51 119 0 14 -4 28 -9 31 -16 10 -51 91 -51 119 0 14
-4 28 -9 31 -16 10 -51 91 -51 119 0 14 -4 28 -9 31 -16 10 -51 91 -51 119 0
14 -4 28 -9 31 -16 10 -51 91 -51 119 0 14 -4 28 -9 31 -16 10 -51 91 -51 119
0 14 -4 28 -9 32 -12 7 -54 97 -71 150 -7 22 -21 55 -32 72 -11 18 -17 41 -13
51 3 11 -1 24 -10 32 -8 7 -15 24 -15 39 0 14 -7 39 -15 55 -32 61 -14 167 36
217 10 10 19 26 19 35 0 13 -10 14 -72 7 -93 -10 -761 -10 -894 0 -55 4 -103
5 -106 1z m866 -143 c9 -10 23 -47 32 -82 35 -152 65 -239 151 -444 30 -71 67
-161 83 -200 15 -38 51 -128 80 -200 29 -71 63 -157 75 -190 13 -33 66 -168
120 -300 58 -144 99 -260 102 -290 6 -54 -8 -88 -107 -260 -23 -38 -50 -90
-62 -115 -25 -53 -68 -110 -84 -110 -29 0 -63 76 -210 480 -19 52 -41 109 -49
125 -7 17 -53 129 -101 250 -47 121 -108 270 -134 330 -27 61 -71 166 -100
235 -79 193 -153 364 -161 375 -3 6 -19 42 -34 80 -16 39 -50 115 -77 169 -51
105 -60 151 -30 159 9 3 123 5 253 6 218 1 237 0 253 -18z"/>
<path d="M2707 3134 c-9 -9 32 -54 48 -54 18 0 83 -50 144 -111 50 -51 121
-165 121 -196 0 -6 6 -24 14 -40 79 -160 106 -222 106 -245 0 -15 4 -29 9 -32
16 -10 81 -153 81 -179 0 -14 4 -28 9 -31 16 -10 81 -153 81 -179 0 -14 4 -28
9 -32 12 -7 54 -96 71 -150 7 -22 26 -64 41 -94 16 -30 29 -66 29 -82 0 -15 4
-30 9 -33 16 -10 51 -91 51 -119 0 -14 4 -28 9 -31 16 -10 51 -91 51 -119 0
-14 4 -28 9 -31 15 -10 51 -91 51 -116 0 -13 6 -31 14 -39 7 -9 23 -46 35 -83
13 -37 27 -70 32 -73 5 -4 9 -20 9 -37 0 -17 7 -39 16 -49 9 -10 17 -31 18
-46 1 -15 6 -35 11 -43 27 -42 45 -87 45 -111 0 -15 7 -32 15 -39 8 -7 15 -27
15 -45 0 -18 7 -38 15 -45 8 -7 15 -27 15 -46 0 -18 4 -35 9 -39 5 -3 12 -19
16 -36 6 -25 11 -30 33 -27 18 2 28 10 30 23 3 19 26 75 44 105 4 8 15 30 24
48 8 18 21 35 29 39 8 3 15 13 15 23 0 9 9 29 20 43 11 14 20 32 20 40 0 8 7
20 15 27 8 7 15 20 15 30 0 10 7 23 15 30 8 7 15 21 15 31 0 10 11 26 25 35
16 11 24 23 20 33 -3 11 5 27 20 41 14 13 25 31 25 41 0 9 7 22 15 29 8 7 15
20 15 30 0 10 7 23 15 30 8 7 15 18 15 25 0 7 7 18 15 25 19 16 19 46 0 54 -9
3 -15 18 -15 40 0 19 -4 37 -9 40 -16 10 -51 91 -51 119 0 14 -4 28 -9 31 -16
10 -51 91 -51 119 0 14 -4 28 -9 31 -16 10 -51 91 -51 119 0 14 -4 28 -9 31
-16 10 -51 91 -51 119 0 14 -4 28 -9 31 -16 10 -51 91 -51 119 0 14 -4 28 -9
31 -16 10 -51 91 -51 119 0 14 -4 28 -9 31 -16 10 -51 91 -51 119 0 14 -4 28
-9 31 -16 10 -51 91 -51 119 0 14 -4 28 -9 31 -16 10 -51 91 -51 118 0 14 -7
31 -15 38 -8 7 -15 18 -15 25 0 7 -6 18 -14 24 -7 6 -17 39 -20 74 -4 34 -12
68 -18 74 -23 28 6 136 49 181 7 7 13 20 13 28 0 12 -12 13 -67 7 -89 -10
-758 -10 -893 0 -58 4 -109 5 -113 1z m867 -139 c12 -9 27 -49 42 -112 13 -54
36 -127 50 -163 14 -36 32 -81 39 -100 37 -99 192 -488 230 -580 24 -58 60
-148 80 -200 20 -52 45 -113 55 -135 10 -22 49 -119 86 -215 82 -208 85 -241
34 -335 -18 -33 -36 -64 -40 -70 -4 -5 -31 -55 -61 -110 -76 -146 -96 -175
-119 -175 -29 0 -60 68 -156 340 -21 61 -246 623 -332 830 -57 138 -232 550
-242 569 -11 23 -77 174 -110 252 -15 36 -39 90 -54 121 -29 61 -32 84 -13 91
6 3 120 6 252 6 193 0 244 -2 259 -14z"/>
<path d="M4553 3127 c2 -6 13 -11 25 -9 13 2 25 -5 32 -17 6 -12 19 -21 29
-21 43 0 181 -150 181 -197 0 -9 9 -31 21 -49 12 -19 18 -42 14 -52 -3 -11 1
-25 10 -32 13 -11 15 -34 14 -117 -1 -57 1 -107 5 -110 9 -9 56 26 56 43 0 9
7 29 15 45 8 16 22 42 30 58 8 16 15 36 15 44 0 8 7 20 15 27 8 7 15 20 15 29
0 10 14 30 30 46 17 16 30 36 30 45 0 9 14 29 30 45 17 16 30 37 30 46 0 15
114 122 162 152 10 7 18 18 18 25 0 11 -19 12 -97 5 -122 -10 -398 -10 -561
-1 -96 6 -123 5 -119 -5z m460 -136 c12 -12 -7 -63 -33 -86 -18 -16 -20 -16
-44 10 -28 30 -35 79 -13 89 17 8 78 -1 90 -13z"/>
</g>
</svg>
